<svg width="383" height="95" xmlns="http://www.w3.org/2000/svg">
  <g fill="none" fill-rule="evenodd">
    <path d="M134.83 71.8c-13.93 0-20.9-7.65-20.9-22.94 0-7.6 1.9-13.42 5.68-17.44 3.8-4.02 9.23-6.02 16.3-6.02 5.18 0 9.82 1.01 13.93 3.04l-3.6 9.45a61.63 61.63 0 0 0-5.36-1.9c-1.66-.5-3.31-.74-4.97-.74-6.35 0-9.53 4.5-9.53 13.53 0 8.75 3.18 13.13 9.53 13.13 2.35 0 4.53-.31 6.53-.94 2-.63 4-1.6 6-2.94v10.45a19.68 19.68 0 0 1-5.98 2.6c-2.02.48-4.56.72-7.63.72zm33.71-23.26c0 4.43.73 7.78 2.18 10.05 1.46 2.27 3.83 3.4 7.11 3.4 3.26 0 5.6-1.13 7.03-3.38C186.29 56.35 187 53 187 48.54c0-4.43-.72-7.76-2.16-9.97-1.44-2.22-3.8-3.32-7.09-3.32-3.26 0-5.6 1.1-7.05 3.3-1.44 2.2-2.16 5.53-2.16 9.99zm30.95 0c0 7.29-1.92 12.98-5.76 17.1-3.85 4.1-9.2 6.16-16.06 6.16-4.3 0-8.09-.94-11.37-2.82a18.78 18.78 0 0 1-7.57-8.11c-1.76-3.52-2.64-7.63-2.64-12.33 0-7.32 1.9-13 5.73-17.06 3.81-4.06 9.18-6.08 16.1-6.08 4.29 0 8.08.93 11.36 2.8a18.7 18.7 0 0 1 7.57 8.05c1.76 3.5 2.64 7.59 2.64 12.29zm28.95 13.53c2.14 0 4.7-.47 7.69-1.4v9.09c-3.04 1.36-6.78 2.04-11.21 2.04-4.89 0-8.44-1.23-10.67-3.7-2.23-2.47-3.35-6.18-3.35-11.11V35.4h-5.84v-5.17l6.72-4.08 3.53-9.45h7.8v9.53h12.54v9.17h-12.53v21.58c0 1.73.48 3.01 1.46 3.84a5.77 5.77 0 0 0 3.86 1.24zm10.33-35.83h13.37l8.45 25.18a34.94 34.94 0 0 1 1.48 7.77h.24c.3-2.75.87-5.34 1.73-7.77l8.28-25.18h13.1l-18.94 50.49c-1.74 4.67-4.21 8.16-7.43 10.49a18.75 18.75 0 0 1-11.27 3.48c-2.1 0-4.18-.23-6.2-.68v-9.7c1.46.36 3.06.53 4.8.53 2.16 0 4.05-.66 5.66-1.98 1.62-1.32 2.88-3.32 3.79-5.99l.72-2.2-17.78-44.44zm77.64 45.56c-5.26 0-9.39-1.9-12.38-5.72h-.64c.43 3.73.64 5.9.64 6.48V90.7h-12.2V26.24h9.92l1.72 5.8h.56c2.86-4.43 7.1-6.64 12.7-6.64 5.28 0 9.42 2.04 12.4 6.12 3 4.09 4.5 9.76 4.5 17.02 0 4.78-.7 8.93-2.1 12.45-1.41 3.52-3.4 6.2-6 8.05a15.34 15.34 0 0 1-9.12 2.76zm-3.6-36.63c-3.02 0-5.23.92-6.61 2.78-1.4 1.85-2.11 4.92-2.17 9.19v1.32c0 4.8.72 8.25 2.15 10.33 1.42 2.08 3.69 3.12 6.78 3.12 5.48 0 8.21-4.51 8.21-13.53 0-4.4-.67-7.71-2.02-9.91s-3.46-3.3-6.35-3.3zm49.44-1.09c-2.59 0-4.62.82-6.08 2.47-1.47 1.64-2.31 3.97-2.53 6.98h17.14c-.05-3.01-.84-5.34-2.36-6.98-1.52-1.65-3.58-2.47-6.17-2.47zm1.72 37.72c-7.2 0-12.84-1.99-16.9-5.97-4.05-3.97-6.08-9.6-6.08-16.9 0-7.5 1.88-13.3 5.63-17.39 3.75-4.1 8.93-6.14 15.55-6.14 6.33 0 11.25 1.8 14.78 5.4 3.52 3.6 5.28 8.58 5.28 14.94v5.92h-28.87c.14 3.47 1.16 6.18 3.09 8.13 1.92 1.95 4.61 2.92 8.08 2.92a33.58 33.58 0 0 0 15.18-3.52v9.45a28.67 28.67 0 0 1-6.85 2.38c-2.43.52-5.39.78-8.89.78z" fill="#343434" fill-rule="nonzero"/>
    <path fill="#FF46AD" d="M0 0h95v95H0z"/>
    <path d="M41.5 57.58c0-1.93-.72-3.4-2.17-4.42s-3.56-1.53-6.33-1.53V43.7c2.79 0 4.9-.49 6.34-1.46a4.75 4.75 0 0 0 2.16-4.19V27.23c0-3.39 1.07-5.77 3.22-7.15C46.87 18.69 50.64 18 56.04 18v7.47c-2.19.07-3.7.49-4.53 1.26-.83.78-1.24 1.92-1.24 3.42v9.93c-.14 4.16-2.73 6.62-7.77 7.37v.4c5.18.77 7.77 3.12 7.77 7.04v10.23c0 1.5.4 2.64 1.22 3.42.82.77 2.34 1.19 4.55 1.26v7.5c-5.4 0-9.17-.7-11.32-2.07-2.15-1.39-3.22-3.78-3.22-7.2V57.59z" fill="#FFF" fill-rule="nonzero"/>
  </g>
</svg>
